<svg xmlns="http://www.w3.org/2000/svg" width="600" height="600" viewBox="0 0 600 600"><title>tc-stop-circle</title><g id="レイヤー_2" data-name="レイヤー 2"><g id="レイヤー_6" data-name="レイヤー 6"><path d="M300,0C134.31458,0,0,134.31458,0,300S134.31458,600,300,600,600,465.68542,600,300,465.68542,0,300,0ZM417.74707,385.67517l-.158,2.99854a30.56388,30.56388,0,0,1-28.91528,28.91541l-2.99854.15784a1630.10708,1630.10708,0,0,1-171.35059,0l-2.99841-.15784a30.564,30.564,0,0,1-28.91541-28.91541l-.15784-2.99854a1630.10359,1630.10359,0,0,1,0-171.3504l.15784-2.99854a30.56408,30.56408,0,0,1,28.91541-28.91541l2.99841-.15778a1630.074,1630.074,0,0,1,171.35059,0l2.99854.15778a30.564,30.564,0,0,1,28.91528,28.91541l.158,2.99854A1630.16976,1630.16976,0,0,1,417.74707,385.67517Z"/></g></g></svg>