<svg xmlns="http://www.w3.org/2000/svg" width="471.14186" height="471.14186" viewBox="0 0 471.14186 471.14186"><title>tc-stop</title><g id="レイヤー_2" data-name="レイヤー 2"><g id="レイヤー_6" data-name="レイヤー 6"><path d="M409.64557,466.40911l-5.88637.30981a3200,3200,0,0,1-336.37653,0l-5.88637-.30981A60,60,0,0,1,4.73276,409.64557l-.30981-5.88637a3200,3200,0,0,1,0-336.37653l.30981-5.88637A60,60,0,0,1,61.49629,4.73276l5.88637-.30981a3200,3200,0,0,1,336.37653,0l5.88637.30981a60,60,0,0,1,56.76354,56.76354l.30981,5.88637a3200,3200,0,0,1,0,336.37653l-.30981,5.88637A60,60,0,0,1,409.64557,466.40911Z"/></g></g></svg>