<?xml version="1.0" encoding="utf-8"?>
<!-- Generator: Adobe Illustrator 20.1.0, SVG Export Plug-In . SVG Version: 6.00 Build 0)  -->
<!DOCTYPE svg PUBLIC "-//W3C//DTD SVG 1.1//EN" "http://www.w3.org/Graphics/SVG/1.1/DTD/svg11.dtd">
<svg version="1.1" id="tc-turtle" xmlns="http://www.w3.org/2000/svg" xmlns:xlink="http://www.w3.org/1999/xlink" x="0px" y="0px"
	 viewBox="0 0 480 480" style="enable-background:new 0 0 480 480;" xml:space="preserve">
<style type="text/css">
	.st0{fill:url(#tail_1_);}
	.st1{fill:url(#planet_1_);}
	.st2{fill:url(#clock-long_1_);}
	.st3{fill:url(#clock-short_1_);}
	.st4{fill:url(#clock-center_1_);}
	.st5{fill:url(#body-back_1_);}
	.st6{fill:url(#body-front_1_);}
	.st7{fill:url(#eye_1_);}
</style>
<linearGradient id="tail_1_" gradientUnits="userSpaceOnUse" x1="9.094947e-13" y1="348.2374" x2="142.4757" y2="348.2374">
	<stop  offset="0" style="stop-color:#4A4041"/>
	<stop  offset="1" style="stop-color:#554A4B"/>
</linearGradient>
<path id="tail" class="st0" d="M131.7,331.3c15.1,0.5,9.9,34.7,9.9,34.7s-92.7-7.9-132-11C-1,354.1-32.8,325.7,131.7,331.3z"/>
<linearGradient id="planet_1_" gradientUnits="userSpaceOnUse" x1="352.5688" y1="378.8438" x2="90.7665" y2="117.0414">
	<stop  offset="0" style="stop-color:#4EC0AA"/>
	<stop  offset="0.45" style="stop-color:#53C0A5"/>
	<stop  offset="1" style="stop-color:#E4C126"/>
</linearGradient>
<path id="planet" class="st1" d="M229.7,350.5c0,0,185.7-19.2,191.4-41.3c4.1-15.9,6.3-32.6,6.3-49.8C427.4,149.8,338.6,61,229,61
	S30.6,149.8,30.6,259.4c0,37.4,10.4,72.4,28.4,102.3C63.5,369.1,229.7,350.5,229.7,350.5z"/>
<linearGradient id="clock-long_1_" gradientUnits="userSpaceOnUse" x1="111.7336" y1="183.3999" x2="244.5409" y2="260.0763">
	<stop  offset="0" style="stop-color:#FFFFFF"/>
	<stop  offset="1" style="stop-color:#F9F9F9"/>
</linearGradient>
<path id="clock-long" class="st2" d="M227.1,274.3c-3.3,0-6.7-1-9.5-3.2l-98-73.4c-7-5.3-8.4-15.2-3.2-22.2c5.3-7,15.2-8.4,22.2-3.2
	l98,73.4c7,5.3,8.4,15.2,3.2,22.2C236.7,272.1,232,274.3,227.1,274.3z">
	<animateTransform
	attributeName="transform" attributeType="XML"
	type="rotate"
	dur="1.5s" repeatCount="indefinite" values="0,227.14,257.8; 90,227.14,257.8; 0,227.14,257.8" keySplines="0.42,0 0.58,1.0" />
</path>
<linearGradient id="clock-short_1_" gradientUnits="userSpaceOnUse" x1="214.983" y1="269.1442" x2="312.497" y2="212.8445">
	<stop  offset="0" style="stop-color:#F9F9F9"/>
	<stop  offset="1" style="stop-color:#FFFFFF"/>
</linearGradient>
<path id="clock-short" class="st3" d="M227.2,274.3c-5.9,0-11.6-3.3-14.3-9c-3.8-7.9-0.4-17.4,7.5-21.2l73.2-34.9
	c7.9-3.8,17.4-0.4,21.2,7.5s0.4,17.4-7.5,21.2L234,272.8C231.8,273.8,229.4,274.3,227.2,274.3z">
	<animateTransform
	attributeName="transform" attributeType="XML"
	type="rotate"
	dur="1.5s" repeatCount="indefinite" values="0,227.14,257.8; -120,227.14,257.8; 0,227.14,257.8" keySplines="0.42,0 0.58,1.0" />
</path>
<linearGradient id="clock-center_1_" gradientUnits="userSpaceOnUse" x1="227.1438" y1="289.5444" x2="227.1438" y2="226.058">
	<stop  offset="0" style="stop-color:#FBFBFB"/>
	<stop  offset="1" style="stop-color:#FFFFFF"/>
</linearGradient>
<circle id="clock-center" class="st4" cx="227.1" cy="257.8" r="31.7"/>
<linearGradient id="body-back_1_" gradientUnits="userSpaceOnUse" x1="283.9024" y1="278.1166" x2="180.1952" y2="457.7428">
	<stop  offset="0" style="stop-color:#4A4041"/>
	<stop  offset="1" style="stop-color:#554A4B"/>
</linearGradient>
<path id="body-back" class="st5" d="M65.9,372.5c10.6,15.3,23.3,29,37.7,40.6c5.6,4.5,12.6,6.9,19.8,6.9h2c9.3,0,17.4-4.5,25.4-9.2
	c33.8-20,48.8-28.6,78.8-28.6c30,0,45,8.5,78.8,28.6c8,4.7,16.1,9.2,25.4,9.2h0.9c7.3,0,14.4-2.5,20.1-7.2
	c21.3-17.4,38.9-39.2,51.5-64.1L65.9,372.5z">
	<animate
		attributeName="d" attributeType="XML"
		dur="3s" repeatCount="indefinite"
		values="M65.9,372.5c10.6,15.3,23.3,29,37.7,40.6c5.6,4.5,12.6,6.9,19.8,6.9h2c9.3,0,17.4-4.5,25.4-9.2
			c33.8-20,48.8-28.6,78.8-28.6c30,0,45,8.5,78.8,28.6c8,4.7,16.1,9.2,25.4,9.2h0.9c7.3,0,14.4-2.5,20.1-7.2
			c21.3-17.4,38.9-39.2,51.5-64.1L65.9,372.5z;
			M65.9,372.5c10.6,15.3,1.3,29,15.7,40.6c5.6,4.5,9.6,6.9,16.8,6.9h2c9.3,0,23.7-2.8,30.4-9.2
				c17.5-16.5,68.8-28.6,98.8-28.6c30,0,36.1,5.8,57.8,28.6c6.4,6.7,11.1,9.2,20.4,9.2h0.9c7.3,0,19.4-2.5,25.1-7.2
				c21.3-17.4,53.1-40.9,72.5-64.1L65.9,372.5z;
M65.9,372.5c10.6,15.3,23.3,29,37.7,40.6c5.6,4.5,12.6,6.9,19.8,6.9h2c9.3,0,17.4-4.5,25.4-9.2
	c33.8-20,48.8-28.6,78.8-28.6c30,0,45,8.5,78.8,28.6c8,4.7,16.1,9.2,25.4,9.2h0.9c7.3,0,14.4-2.5,20.1-7.2
	c21.3-17.4,38.9-39.2,51.5-64.1L65.9,372.5z;
			M65.9,372.5c10.6,15.3,49.3,29,63.7,40.6c5.6,4.5,17.6,6.9,24.8,6.9h2c9.3,0,18.4-3.2,25.4-9.2
			c29.4-25.2,17.8-28.6,47.8-28.6c30,0,62,8.5,95.8,28.6c8,4.7,21.1,9.2,30.4,9.2h0.9c7.3,0,23.4-2.5,29.1-7.2
			c21.3-17.4,7.9-39.2,20.5-64.1L65.9,372.5z;
			M65.9,372.5c10.6,15.3,23.3,29,37.7,40.6c5.6,4.5,12.6,6.9,19.8,6.9h2c9.3,0,17.4-4.5,25.4-9.2
				c33.8-20,48.8-28.6,78.8-28.6c30,0,45,8.5,78.8,28.6c8,4.7,16.1,9.2,25.4,9.2h0.9c7.3,0,14.4-2.5,20.1-7.2
				c21.3-17.4,38.9-39.2,51.5-64.1L65.9,372.5z"
	 />
</path>
<linearGradient id="body-front_1_" gradientUnits="userSpaceOnUse" x1="325.1431" y1="183.5594" x2="170.1677" y2="451.9846">
	<stop  offset="0" style="stop-color:#9B9494"/>
	<stop  offset="1" style="stop-color:#554B4B"/>
</linearGradient>
<path id="body-front" class="st6" d="M476.9,278.5c-7.7-19-31.8-23.9-46-16.1C304.6,332.2,167.9,369.9,4,352.9l0.1,0.3
	c10.6,7.9,32.6,14.6,61.8,19.2c10.6,15.3,23.3,29,37.7,40.7c5.6,4.5,12.6,6.9,19.8,6.9h2c9.3,0,17.4-4.5,25.4-9.2
	c33.8-20,48.8-28.6,78.8-28.6c30,0,45,8.6,78.8,28.6c8,4.7,16.1,9.2,25.4,9.2h0.9c7.3,0,14.4-2.6,20.1-7.2
	c21.3-17.4,38.9-39.2,51.5-64.1l0.9-1.7c21.1-7.1,39.4-15.4,56.6-25.2C472.6,316.9,486.1,301.3,476.9,278.5z">
	<animate
		attributeName="d" attributeType="XML"
		dur="3s" repeatCount="indefinite"
		values="M476.9,278.5c-7.7-19-31.8-23.9-46-16.1C304.6,332.2,167.9,369.9,4,352.9l0.1,0.3
			c10.6,7.9,32.6,14.6,61.8,19.2c10.6,15.3,23.3,29,37.7,40.7c5.6,4.5,12.6,6.9,19.8,6.9h2c9.3,0,17.4-4.5,25.4-9.2
			c33.8-20,48.8-28.6,78.8-28.6c30,0,45,8.6,78.8,28.6c8,4.7,16.1,9.2,25.4,9.2h0.9c7.3,0,14.4-2.6,20.1-7.2
			c21.3-17.4,38.9-39.2,51.5-64.1l0.9-1.7c21.1-7.1,39.4-15.4,56.6-25.2C472.6,316.9,486.1,301.3,476.9,278.5z;
M476.9,278.5c-7.7-19-31.8-23.9-46-16.1C304.6,332.2,167.9,369.9,4,352.9l0.1,0.3
	c10.6,7.9,32.6,14.6,61.8,19.2c10.6,15.3,42,28.7,69.7,43.7c5.6,4.5,14.6,3.9,21.8,3.9h2c9.3,0,15.3-2.3,23.4-9.2
	c18.9-20.5,24.9-29.1,46.8-28.6c30,0.7,63,8.6,96.8,28.6c8,4.7,16.1,9.2,25.4,9.2h0.9c7.3,0,25.4-2.6,31.1-7.2
	c22.5-7.8,9.2-46.8,22.5-64.1l0.9-1.7c21.1-7.1,39.4-15.4,56.6-25.2C472.6,316.9,486.1,301.3,476.9,278.5z;
M476.9,278.5c-7.7-19-31.8-23.9-46-16.1C304.6,332.2,167.9,369.9,4,352.9l0.1,0.3
	c10.6,7.9,32.6,14.6,61.8,19.2c10.6,15.3,23.3,29,37.7,40.7c5.6,4.5,12.6,6.9,19.8,6.9h2c9.3,0,17.4-4.5,25.4-9.2
	c33.8-20,48.8-28.6,78.8-28.6c30,0,45,8.6,78.8,28.6c8,4.7,16.1,9.2,25.4,9.2h0.9c7.3,0,14.4-2.6,20.1-7.2
	c21.3-17.4,38.9-39.2,51.5-64.1l0.9-1.7c21.1-7.1,39.4-15.4,56.6-25.2C472.6,316.9,486.1,301.3,476.9,278.5z;
			M476.9,278.5c-7.7-19-31.8-23.9-46-16.1C304.6,332.2,167.9,369.9,4,352.9l0.1,0.3
			c10.6,7.9,32.6,14.6,61.8,19.2c10.6,15.3,1.3,29,15.7,40.7c5.6,4.5,12.6,6.9,19.8,6.9h2c9.3,0,17.4-4.5,25.4-9.2
			c33.8-20,70.8-28.6,100.8-28.6c30,0,34.1,3.7,57.8,28.6c6.4,6.8,16.1,9.2,25.4,9.2h0.9c7.3,0,14.4-2.6,20.1-7.2
			c21.3-17.4,50.1-37.8,72.5-64.1l0.9-0.7c21.1-7.1,39.4-16.4,56.6-26.2C472.6,316.9,486.1,301.3,476.9,278.5z;
			M476.9,278.5c-7.7-19-31.8-23.9-46-16.1C304.6,332.2,167.9,369.9,4,352.9l0.1,0.3
				c10.6,7.9,32.6,14.6,61.8,19.2c10.6,15.3,23.3,29,37.7,40.7c5.6,4.5,12.6,6.9,19.8,6.9h2c9.3,0,17.4-4.5,25.4-9.2
				c33.8-20,48.8-28.6,78.8-28.6c30,0,45,8.6,78.8,28.6c8,4.7,16.1,9.2,25.4,9.2h0.9c7.3,0,14.4-2.6,20.1-7.2
				c21.3-17.4,38.9-39.2,51.5-64.1l0.9-1.7c21.1-7.1,39.4-15.4,56.6-25.2C472.6,316.9,486.1,301.3,476.9,278.5z"
	/>
</path>
<linearGradient id="eye_1_" gradientUnits="userSpaceOnUse" x1="439.9723" y1="282.6909" x2="455.8439" y2="282.6909">
	<stop  offset="0" style="stop-color:#4A4041"/>
	<stop  offset="1" style="stop-color:#554A4B"/>
</linearGradient>
<circle id="eye" class="st7" cx="447.9" cy="282.7" r="7.9"/>
</svg>
